<?xml version="1.0" standalone="no"?>
<!DOCTYPE svg PUBLIC "-//W3C//DTD SVG 20010904//EN"
 "http://www.w3.org/TR/2001/REC-SVG-20010904/DTD/svg10.dtd">
<svg version="1.0" xmlns="http://www.w3.org/2000/svg"
 width="700.000000pt" height="700.000000pt" viewBox="0 0 700.000000 700.000000"
 preserveAspectRatio="xMidYMid meet">
<metadata>
Created by potrace 1.14, written by Peter Selinger 2001-2017
</metadata>
<g transform="translate(0.000000,700.000000) scale(0.100000,-0.100000)"
fill="#000000" stroke="none">
<path d="M3280 6994 c-19 -2 -84 -9 -145 -14 -639 -62 -1264 -315 -1795 -726
-149 -115 -481 -446 -595 -594 -410 -532 -653 -1132 -727 -1795 -17 -155 -17
-575 0 -730 75 -673 332 -1300 748 -1820 114 -143 339 -372 484 -494 537 -451
1163 -717 1885 -803 142 -17 586 -17 730 0 682 79 1268 318 1802 734 138 107
389 351 512 498 451 538 717 1162 803 1885 16 139 16 595 0 730 -77 629 -275
1158 -620 1649 -234 333 -577 668 -917 896 -460 308 -968 495 -1535 566 -117
15 -552 27 -630 18z m-72 -2516 c-3 -991 -3 -1014 -23 -1051 -11 -20 -393
-423 -850 -893 -456 -471 -834 -867 -840 -881 -7 -18 -5 -32 6 -51 l15 -27
812 -3 812 -2 0 -60 0 -60 -807 0 c-768 0 -810 1 -849 19 -78 35 -119 122
-101 210 8 39 25 62 131 170 67 70 407 421 756 781 348 360 676 698 727 751
l93 96 0 1007 0 1006 60 0 60 0 -2 -1012z m2275 -1955 c-89 -92 -196 -202
-237 -243 -42 -41 -76 -80 -76 -86 0 -6 94 -108 209 -227 209 -215 233 -244
245 -304 15 -70 -40 -170 -111 -199 -27 -12 -242 -14 -1198 -14 l-1165 0 0 60
0 60 1155 0 c1142 0 1155 0 1175 20 43 43 33 58 -192 292 l-213 221 -230 -237
-230 -237 -44 44 -44 45 227 233 c124 129 226 237 226 243 0 5 -78 88 -172
185 -95 97 -200 204 -232 238 l-60 63 43 43 42 44 162 -166 c90 -91 196 -201
237 -243 l75 -78 240 249 240 250 44 -44 45 -44 -161 -168z"/>
</g>
</svg>
